<svg width="135" height="40" xmlns="http://www.w3.org/2000/svg">
 <g>
  <title>Layer 1</title>
  <text fill="#00224c" stroke-width="0" x="40" y="16.16667" id="svg_1" font-size="16" font-family="'Cabin'" text-anchor="start" xml:space="preserve" font-weight="bold" stroke="#000">RMUI Big</text>
  <text fill="#00224c" stroke="#000" stroke-width="0" x="40" y="33.5" id="svg_2" font-size="16" font-family="'Cabin'" text-anchor="start" xml:space="preserve" font-weight="bold">Components</text>
  <g id="svg_3" stroke="null">
   <title stroke="null" fill="#000000">atom-line</title>
   <path id="svg_4" d="m20,16.13935a3.74074,3.74074 0 1 0 3.74074,3.74074a3.74074,3.74074 0 0 0 -3.74074,-3.74074zm0,6.02259a2.26315,2.26315 0 1 1 2.26315,-2.26315a2.26315,2.26315 0 0 1 -2.26315,2.26315z" class="clr-i-outline clr-i-outline-path-1" stroke="null" fill="#000000"/>
   <path id="svg_5" d="m25.8262,13.95102a36.60315,36.60315 0 0 0 -4.2738,-3.66593a21.37833,21.37833 0 0 1 3.25444,-1.60852c0.29926,-0.11222 0.57981,-0.19639 0.86037,-0.28056a2.13222,2.13222 0 0 0 3.56306,-0.43019a3.09546,3.09546 0 0 1 1.79556,0.78556c1.11287,1.11287 1.14093,3.35731 0.09352,6.15352c0.45824,0.60787 0.87907,1.22509 1.2625,1.87037c0.15898,-0.37407 0.32731,-0.7388 0.45824,-1.10352c1.37472,-3.60046 1.19704,-6.5463 -0.49565,-8.21093a4.94713,4.94713 0 0 0 -3.11417,-1.34667a2.14157,2.14157 0 0 0 -4.03065,0.505c-0.34602,0.10287 -0.69204,0.20574 -1.05676,0.34602a24.11843,24.11843 0 0 0 -4.2738,2.19769a24.5112,24.5112 0 0 0 -4.28315,-2.23509c-3.60046,-1.36537 -6.5463,-1.19704 -8.20157,0.49565c-1.55241,1.56176 -1.80491,4.15222 -0.7762,7.35056a2.13222,2.13222 0 0 0 1.48694,3.43213c0.29926,0.57046 0.62657,1.14093 0.9913,1.70204a23.88463,23.88463 0 0 0 -2.17898,4.28315c-1.37472,3.59111 -1.19704,6.5463 0.49565,8.20157a5.26509,5.26509 0 0 0 3.85296,1.41213a12.47537,12.47537 0 0 0 4.34861,-0.93519a24.5112,24.5112 0 0 0 4.28315,-2.19769a24.11843,24.11843 0 0 0 4.25509,2.2538a13.24222,13.24222 0 0 0 3.41343,0.84167a2.15093,2.15093 0 0 0 4.09611,-0.84167a4.25509,4.25509 0 0 0 0.69204,-0.53306c1.69269,-1.69269 1.87037,-4.61046 0.49565,-8.20157a30.56185,30.56185 0 0 0 -7.01389,-10.24028l0,0.00001zm-10.90426,17.1887c-2.80556,1.07546 -5.09676,1.05676 -6.21898,-0.07481s-1.15028,-3.38537 -0.06546,-6.20963a21.29417,21.29417 0 0 1 1.59917,-3.25444a37.58509,37.58509 0 0 0 3.66593,4.26444c0.40213,0.40213 0.81361,0.79491 1.22509,1.16898q0.84167,-0.43019 1.71139,-0.98194c-0.54241,-0.4863 -1.08481,-0.93519 -1.60852,-1.50565a31.7963,31.7963 0 0 1 -5.36796,-6.98583a2.14157,2.14157 0 0 0 -1.55241,-3.62852l0,0c-0.70139,-2.33796 -0.57981,-4.19898 0.40213,-5.18093a3.47889,3.47889 0 0 1 2.5437,-0.86037a10.66111,10.66111 0 0 1 3.67528,0.78556a21.37833,21.37833 0 0 1 3.25444,1.60852a36.60315,36.60315 0 0 0 -4.2738,3.66593c-0.41148,0.41148 -0.81361,0.84167 -1.20639,1.27185a18.9562,18.9562 0 0 0 0.93519,1.73009c0.505,-0.57046 1.01935,-1.13157 1.57111,-1.68333a33.97528,33.97528 0 0 1 4.67593,-3.89972a34.48963,34.48963 0 0 1 4.62917,3.89972a33.90982,33.90982 0 0 1 3.89972,4.67593a34.60185,34.60185 0 0 1 -3.89972,4.67593a28.69148,28.69148 0 0 1 -9.595,6.51824l-0.00001,-0.00002zm16.10389,-0.08417l-0.14963,0.12157a2.12287,2.12287 0 0 0 -3.27315,0.67333a11.75528,11.75528 0 0 1 -2.80556,-0.72009a20.57407,20.57407 0 0 1 -3.25444,-1.60852a36.60315,36.60315 0 0 0 4.2738,-3.66593a35.78019,35.78019 0 0 0 3.66593,-4.26444a21.39704,21.39704 0 0 1 1.60852,3.25444c1.06611,2.83361 1.06611,5.09676 -0.06546,6.20963l-0.00001,0.00001z" class="clr-i-outline clr-i-outline-path-2" stroke="null" fill="#000000"/>
   <rect id="svg_6" x="3.16667" y="3" width="33.66667" height="33.66667" fill-opacity="0" stroke="null" fill="#000000"/>
  </g>
 </g>

</svg>